<svg width="31" height="30" viewBox="0 0 31 30" fill="none" xmlns="http://www.w3.org/2000/svg">
<path d="M21.5872 8.80469C21.5872 5.50469 18.9022 2.80469 15.5872 2.80469C12.2722 2.80469 9.58715 5.50469 9.58715 8.80469C9.58715 12.1197 12.2722 14.8047 15.5872 14.8047C18.9022 14.8047 21.5872 12.1197 21.5872 8.80469ZM5.44715 15.9897C4.76413 16.3822 4.1652 16.9055 3.68463 17.5297C3.20406 18.154 2.85128 18.8668 2.64648 19.6275C2.44168 20.3882 2.38887 21.1818 2.49108 21.9629C2.5933 22.744 2.84852 23.4973 3.24215 24.1797C4.03806 25.5599 5.34949 26.5675 6.88813 26.981C8.42676 27.3945 10.0666 27.18 11.4472 26.3847C12.1297 25.9898 12.7279 25.4643 13.2073 24.8382C13.6868 24.2121 14.0383 23.4977 14.2416 22.7358C14.445 21.9739 14.4963 21.1794 14.3926 20.3976C14.2888 19.6159 14.0322 18.8622 13.6372 18.1797C11.9872 15.3147 8.31215 14.3397 5.44715 15.9897ZM19.7272 26.3847C22.6072 28.0347 26.2672 27.0597 27.9321 24.1947C29.5822 21.3147 28.6072 17.6547 25.7272 15.9897C22.8622 14.3397 19.1872 15.3147 17.5372 18.1797C17.1421 18.8622 16.8855 19.6159 16.7817 20.3976C16.678 21.1794 16.7293 21.9739 16.9327 22.7358C17.136 23.4977 17.4875 24.2121 17.967 24.8382C18.4465 25.4643 19.0446 25.9898 19.7272 26.3847Z" fill="#399039"/>
</svg>
