<svg width="26" height="26" viewBox="0 0 26 26" fill="none" xmlns="http://www.w3.org/2000/svg">
<mask id="mask0_1578_974" style="mask-type:alpha" maskUnits="userSpaceOnUse" x="4" y="1" width="18" height="24">
<path d="M4.3335 2.70801C4.3335 1.81055 5.06103 1.08301 5.9585 1.08301H15.1668L21.6668 7.58301V23.2913C21.6668 24.1888 20.9393 24.9163 20.0418 24.9163H5.9585C5.06103 24.9163 4.3335 24.1888 4.3335 23.2913V2.70801Z" fill="black"/>
</mask>
<g mask="url(#mask0_1578_974)">
<path d="M4.3335 2.70801C4.3335 1.81055 5.06103 1.08301 5.9585 1.08301H20.0418C20.9393 1.08301 21.6668 1.81055 21.6668 2.70801V23.2913C21.6668 24.1888 20.9393 24.9163 20.0418 24.9163H5.9585C5.06103 24.9163 4.3335 24.1888 4.3335 23.2913V2.70801Z" fill="#399039"/>
<path fill-rule="evenodd" clip-rule="evenodd" d="M5.95801 24.916C5.06055 24.916 4.33301 24.1885 4.33301 23.291V23.022C4.33397 23.9186 5.06114 24.6452 5.95801 24.6452H20.0413C20.9388 24.6452 21.6663 23.9176 21.6663 23.0202V23.291C21.6663 24.1885 20.9388 24.916 20.0413 24.916H5.95801Z" fill="#399039"/>
<path fill-rule="evenodd" clip-rule="evenodd" d="M5.95801 1.08398C5.06055 1.08398 4.33301 1.81152 4.33301 2.70899V2.97804C4.33397 2.0814 5.06114 1.35482 5.95801 1.35482H20.0413C20.9388 1.35482 21.6663 2.08236 21.6663 2.97982V2.70898C21.6663 1.81152 20.9388 1.08398 20.0413 1.08398H5.95801Z" fill="#38AE74"/>
<path d="M21.6665 13.1357L15.86 7.32925C15.6041 7.07333 15.7853 6.63574 16.1473 6.63574H21.6665V13.1357Z" fill="#399039"/>
<path d="M15.1665 1.08301L21.6665 7.58301H16.7915C15.894 7.58301 15.1665 6.85547 15.1665 5.95801V1.08301Z" fill="#8ED1B1"/>
<path fill-rule="evenodd" clip-rule="evenodd" d="M16.2503 12.7285H17.3337L17.3337 12.7285V13.8118V15.166V15.9785V17.3327V18.1452V19.4993L17.3337 20.5827H16.2503H13.542H12.4587H9.75033H8.66699L8.66699 20.5827V19.4993H8.66699V18.1452H8.66699V17.3327H8.66699V15.9785H8.66699V15.166H8.66699V13.8118V12.7285H9.75033H12.4587V12.7285H13.542V12.7285H16.2503V12.7285ZM12.4587 13.8118H9.75033V15.166H12.4587V13.8118ZM13.542 15.166V13.8118H16.2503V15.166H13.542ZM12.4587 15.9785H9.75033V17.3327H12.4587V15.9785ZM13.542 17.3327V15.9785H16.2503V17.3327H13.542ZM12.4587 18.1452H9.75033V19.4993H12.4587V18.1452ZM13.542 19.4993V18.1452H16.2503V19.4993H13.542Z" fill="white"/>
</g>
</svg>
